<?xml version="1.0" encoding="utf-8"?>
<!-- Generator: Adobe Illustrator 24.3.0, SVG Export Plug-In . SVG Version: 6.00 Build 0)  -->
<svg version="1.1" id="Layer_1" xmlns="http://www.w3.org/2000/svg" xmlns:xlink="http://www.w3.org/1999/xlink" x="0px" y="0px"
	 viewBox="0 0 1920 1080" style="enable-background:new 0 0 1920 1080;" xml:space="preserve">
<style type="text/css">
	.st0{fill:none;stroke:#CF3A69;stroke-width:16;stroke-linejoin:round;stroke-miterlimit:11.3386;}
	.st1{fill:none;stroke:#FF9B61;stroke-width:16;stroke-linejoin:round;stroke-miterlimit:11.3386;}
	.st2{fill:none;stroke:#EDCD7E;stroke-width:16;stroke-linejoin:round;stroke-miterlimit:11.3386;}
	.st3{fill:none;stroke:#56827F;stroke-width:16;stroke-linejoin:round;stroke-miterlimit:11.3386;}
	.st4{fill:#303030;}
	.st5{font-family:'Megrim';}
	.st6{font-size:467.1107px;}
	.st7{letter-spacing:-23;}
	.st8{fill:none;stroke:#E4D9C0;stroke-width:2;stroke-linejoin:round;stroke-miterlimit:11.3386;}
	.st9{font-size:41px;}
</style>
<path id="path1347-7-9_1_" class="st0" d="M906.9,36.3l-571.3,984.6h1150L906.9,36.3z"/>
<path id="path1347-7-4-7_1_" class="st1" d="M939.1,36.3l-571.3,984.6h1150L939.1,36.3z"/>
<path id="path1347-7-1-1_1_" class="st2" d="M970.9,36.3l-571.3,984.6h1150L970.9,36.3z"/>
<path id="path1347-7-7-15_1_" class="st3" d="M1004.4,36.3l-571.3,984.6h1150L1004.4,36.3z"/>
<text transform="matrix(1 0 0 1 350.3823 642.917)" class="st4 st5 st6 st7">Brock</text>
<text transform="matrix(1 0 0 1 350.3823 642.917)" class="st8 st5 st6 st7">Brock</text>
<text transform="matrix(1 0 0 1 168.2158 979.4385)" class="st4 st5 st6 st7">Molmen</text>
<text transform="matrix(1 0 0 1 168.2158 979.4385)" class="st8 st5 st6 st7">Molmen</text>
<text transform="matrix(1 0 0 1 571.1582 1063.5195)" class="st5 st9">Full Stack Developer | Design | Cool Guy</text>
</svg>
