<?xml version="1.0" encoding="utf-8"?>
<!-- Generator: Adobe Illustrator 24.3.0, SVG Export Plug-In . SVG Version: 6.00 Build 0)  -->
<svg version="1.1" id="Layer_1" xmlns="http://www.w3.org/2000/svg" xmlns:xlink="http://www.w3.org/1999/xlink" x="0px" y="0px"
	 viewBox="0 0 1920 1080" style="enable-background:new 0 0 1920 1080;" xml:space="preserve">
<style type="text/css">
	.st0{fill:none;stroke:#CF3A69;stroke-width:16;stroke-linejoin:round;stroke-miterlimit:11.3386;}
	.st1{fill:none;stroke:#FF9B61;stroke-width:16;stroke-linejoin:round;stroke-miterlimit:11.3386;}
	.st2{fill:none;stroke:#EDCD7E;stroke-width:16;stroke-linejoin:round;stroke-miterlimit:11.3386;}
	.st3{fill:none;stroke:#56827F;stroke-width:16;stroke-linejoin:round;stroke-miterlimit:11.3386;}
	.st4{enable-background:new    ;}
	.st5{fill:#303030;}
	.st6{fill:none;stroke:#E4D9C0;stroke-width:2;stroke-linejoin:round;stroke-miterlimit:11.3386;}
</style>
<path id="path1347-7-9_1_" class="st0" d="M906.9,36.3l-571.3,984.6h1150L906.9,36.3z"/>
<path id="path1347-7-4-7_1_" class="st1" d="M939.1,36.3l-571.3,984.6h1150L939.1,36.3z"/>
<path id="path1347-7-1-1_1_" class="st2" d="M970.9,36.3l-571.3,984.6h1150L970.9,36.3z"/>
<path id="path1347-7-7-15_1_" class="st3" d="M1004.4,36.3l-571.3,984.6h1150L1004.4,36.3z"/>
<g class="st4">
	<path class="st5" d="M471.4,642.9h-74.7v-327h57c41.1,0,72.1,7.6,93,22.7c20.9,15.1,31.3,36.4,31.3,63.8c0,31.1-13.1,54-39.2,68.7
		c38,14.3,57,41.3,57,80.8c0,28-10.3,50.2-30.8,66.6S513.1,642.9,471.4,642.9z M471.4,628.9c14.6,0,28-1.2,40.2-3.5
		c12.1-2.3,23.7-6.2,34.8-11.7c11-5.4,19.7-13.5,25.9-24.1c6.2-10.6,9.3-23.2,9.3-37.8c0-33.3-16-55.9-48.1-67.7l-28-10.3l26.2-14.9
		c21.5-11.8,32.2-30.7,32.2-56.5c0-48.3-36.7-72.4-110.2-72.4h-43v299H471.4z"/>
	<path class="st5" d="M756.3,507l63.5,135.9h-15.4L739,502.8c0.6-0.3,3.3-1.6,8.2-4c4.8-2.3,8.2-4,10-5.1c1.9-1.1,5-3,9.3-5.8
		c4.4-2.8,7.6-5.5,9.8-8.2c2.2-2.6,4.6-5.8,7.2-9.3c2.6-3.6,4.6-7.6,5.8-12.1c1.2-4.5,1.9-9.4,1.9-14.7c0-19.6-9.3-34.1-28-43.4
		c-18.7-9.3-41.9-14-69.6-14h-37.4v256.9h-14V372h51.4c36.7,0,64.5,6.4,83.4,19.2c18.8,12.8,28.3,30.2,28.3,52.3
		c0,14.3-4.8,27-14.5,38.1C781.2,492.6,769.7,501.1,756.3,507z"/>
	<path class="st5" d="M1041.2,614.4c-16.8,22.1-44.7,33.2-83.6,33.2c-38.9,0-66.8-11-83.6-33.2c-16.8-22.1-25.2-57.8-25.2-107
		c0-49.2,8.4-84.9,25.2-107c16.8-22.1,44.7-33.2,83.6-33.2c38.9,0,66.8,11.1,83.6,33.2c16.8,22.1,25.2,57.8,25.2,107
		C1066.5,556.7,1058,592.3,1041.2,614.4z M996.9,386.2c-10.6-3.3-23.7-4.9-39.2-4.9c-15.6,0-28.7,1.6-39.2,4.9
		c-10.6,3.3-20.3,9.3-29.2,18.2c-8.9,8.9-15.5,21.8-19.9,38.8c-4.4,17-6.5,38.4-6.5,64.2c0,25.9,2.2,47.3,6.5,64.2
		c4.4,17,11,29.9,19.9,38.8c8.9,8.9,18.6,14.9,29.2,18.2c10.6,3.3,23.7,4.9,39.2,4.9c15.6,0,28.6-1.6,39.2-4.9
		c10.6-3.3,20.3-9.3,29.2-18.2s15.5-21.8,19.9-38.8c4.4-17,6.5-38.4,6.5-64.2c0-25.8-2.2-47.3-6.5-64.2c-4.4-17-11-29.9-19.9-38.8
		S1007.4,389.5,996.9,386.2z"/>
	<path class="st5" d="M1134.2,614.4c-16.8-22.1-25.2-57.8-25.2-107c0-49.2,8.4-84.9,25.2-107c16.8-22.1,44.7-33.2,83.6-33.2
		c38.9,0,67,10.7,84.1,32.2l-10.3,9.3c-13.7-18.4-38.3-27.6-73.8-27.6c-15.6,0-28.7,1.6-39.2,4.9c-10.6,3.3-20.3,9.3-29.2,18.2
		c-8.9,8.9-15.5,21.8-19.9,38.8c-4.4,17-6.5,38.4-6.5,64.2c0,25.9,2.2,47.3,6.5,64.2c4.4,17,11,29.9,19.9,38.8
		c8.9,8.9,18.6,14.9,29.2,18.2c10.6,3.3,23.7,4.9,39.2,4.9c35.5,0,60.1-9.2,73.8-27.6l10.3,9.3c-17.1,21.5-45.2,32.2-84.1,32.2
		C1178.9,647.6,1151,636.5,1134.2,614.4z"/>
	<path class="st5" d="M1348.6,642.9V372h14v270.9H1348.6z M1521.4,642.9L1377.5,500l128.9-128h20.1l-128.9,128l143.9,142.9H1521.4z"
		/>
</g>
<g class="st4">
	<path class="st6" d="M471.4,642.9h-74.7v-327h57c41.1,0,72.1,7.6,93,22.7c20.9,15.1,31.3,36.4,31.3,63.8c0,31.1-13.1,54-39.2,68.7
		c38,14.3,57,41.3,57,80.8c0,28-10.3,50.2-30.8,66.6S513.1,642.9,471.4,642.9z M471.4,628.9c14.6,0,28-1.2,40.2-3.5
		c12.1-2.3,23.7-6.2,34.8-11.7c11-5.4,19.7-13.5,25.9-24.1c6.2-10.6,9.3-23.2,9.3-37.8c0-33.3-16-55.9-48.1-67.7l-28-10.3l26.2-14.9
		c21.5-11.8,32.2-30.7,32.2-56.5c0-48.3-36.7-72.4-110.2-72.4h-43v299H471.4z"/>
	<path class="st6" d="M756.3,507l63.5,135.9h-15.4L739,502.8c0.6-0.3,3.3-1.6,8.2-4c4.8-2.3,8.2-4,10-5.1c1.9-1.1,5-3,9.3-5.8
		c4.4-2.8,7.6-5.5,9.8-8.2c2.2-2.6,4.6-5.8,7.2-9.3c2.6-3.6,4.6-7.6,5.8-12.1c1.2-4.5,1.9-9.4,1.9-14.7c0-19.6-9.3-34.1-28-43.4
		c-18.7-9.3-41.9-14-69.6-14h-37.4v256.9h-14V372h51.4c36.7,0,64.5,6.4,83.4,19.2c18.8,12.8,28.3,30.2,28.3,52.3
		c0,14.3-4.8,27-14.5,38.1C781.2,492.6,769.7,501.1,756.3,507z"/>
	<path class="st6" d="M1041.2,614.4c-16.8,22.1-44.7,33.2-83.6,33.2c-38.9,0-66.8-11-83.6-33.2c-16.8-22.1-25.2-57.8-25.2-107
		c0-49.2,8.4-84.9,25.2-107c16.8-22.1,44.7-33.2,83.6-33.2c38.9,0,66.8,11.1,83.6,33.2c16.8,22.1,25.2,57.8,25.2,107
		C1066.5,556.7,1058,592.3,1041.2,614.4z M996.9,386.2c-10.6-3.3-23.7-4.9-39.2-4.9c-15.6,0-28.7,1.6-39.2,4.9
		c-10.6,3.3-20.3,9.3-29.2,18.2c-8.9,8.9-15.5,21.8-19.9,38.8c-4.4,17-6.5,38.4-6.5,64.2c0,25.9,2.2,47.3,6.5,64.2
		c4.4,17,11,29.9,19.9,38.8c8.9,8.9,18.6,14.9,29.2,18.2c10.6,3.3,23.7,4.9,39.2,4.9c15.6,0,28.6-1.6,39.2-4.9
		c10.6-3.3,20.3-9.3,29.2-18.2s15.5-21.8,19.9-38.8c4.4-17,6.5-38.4,6.5-64.2c0-25.8-2.2-47.3-6.5-64.2c-4.4-17-11-29.9-19.9-38.8
		S1007.4,389.5,996.9,386.2z"/>
	<path class="st6" d="M1134.2,614.4c-16.8-22.1-25.2-57.8-25.2-107c0-49.2,8.4-84.9,25.2-107c16.8-22.1,44.7-33.2,83.6-33.2
		c38.9,0,67,10.7,84.1,32.2l-10.3,9.3c-13.7-18.4-38.3-27.6-73.8-27.6c-15.6,0-28.7,1.6-39.2,4.9c-10.6,3.3-20.3,9.3-29.2,18.2
		c-8.9,8.9-15.5,21.8-19.9,38.8c-4.4,17-6.5,38.4-6.5,64.2c0,25.9,2.2,47.3,6.5,64.2c4.4,17,11,29.9,19.9,38.8
		c8.9,8.9,18.6,14.9,29.2,18.2c10.6,3.3,23.7,4.9,39.2,4.9c35.5,0,60.1-9.2,73.8-27.6l10.3,9.3c-17.1,21.5-45.2,32.2-84.1,32.2
		C1178.9,647.6,1151,636.5,1134.2,614.4z"/>
	<path class="st6" d="M1348.6,642.9V372h14v270.9H1348.6z M1521.4,642.9L1377.5,500l128.9-128h20.1l-128.9,128l143.9,142.9H1521.4z"
		/>
</g>
<g class="st4">
	<path class="st5" d="M254.6,965.4h184V685.6L333.6,910.8L228.5,685.2v294.3l-14-0.5V652h14l105.1,225.6l105.1-225.1l14-0.5v327.4
		L254.6,979V965.4z"/>
	<path class="st5" d="M701.2,950.9c-16.8,22.1-44.7,33.2-83.6,33.2c-38.9,0-66.8-11-83.6-33.2c-16.8-22.1-25.2-57.8-25.2-107
		c0-49.2,8.4-84.9,25.2-107c16.8-22.1,44.7-33.2,83.6-33.2c38.9,0,66.8,11.1,83.6,33.2c16.8,22.1,25.2,57.8,25.2,107
		C726.4,893.2,718,928.8,701.2,950.9z M656.8,722.8c-10.6-3.3-23.7-4.9-39.2-4.9c-15.6,0-28.7,1.6-39.2,4.9
		c-10.6,3.3-20.3,9.3-29.2,18.2c-8.9,8.9-15.5,21.8-19.9,38.8c-4.4,17-6.5,38.4-6.5,64.2c0,25.9,2.2,47.3,6.5,64.2
		c4.4,17,11,29.9,19.9,38.8c8.9,8.9,18.6,14.9,29.2,18.2c10.6,3.3,23.7,4.9,39.2,4.9c15.6,0,28.6-1.6,39.2-4.9
		c10.6-3.3,20.3-9.3,29.2-18.2s15.5-21.8,19.9-38.8c4.4-17,6.5-38.4,6.5-64.2c0-25.8-2.2-47.3-6.5-64.2c-4.4-17-11-29.9-19.9-38.8
		S667.4,726,656.8,722.8z"/>
	<path class="st5" d="M936.6,965.4v14h-156V708.5h14v256.9H936.6z"/>
	<path class="st5" d="M1011.3,965.4h180.3V728.1l-105.1,105.1L981.4,728.1v251.3l-14-0.5V708.5h14l105.1,105.1l105.1-105.1h14v270.9
		l-194.3-0.5V965.4z"/>
	<path class="st5" d="M1452.8,951.9c-17.1,21.5-45.2,32.2-84.1,32.2c-38.9,0-66.8-11-83.6-33.2c-16.8-22.1-25.2-57.8-25.2-107
		c0-49.2,8.4-84.9,25.2-107c16.8-22.1,44.7-33.2,83.6-33.2c45.1,0,75.8,14.8,92,44.4L1346.3,844h-22l118.2-98.6
		c-13.7-18.4-38.3-27.6-73.8-27.6c-15.6,0-28.7,1.6-39.2,4.9c-10.6,3.3-20.3,9.3-29.2,18.2s-15.5,21.8-19.9,38.8
		c-4.4,17-6.5,38.4-6.5,64.2c0,25.9,2.2,47.3,6.5,64.2c4.4,17,11,29.9,19.9,38.8s18.6,14.9,29.2,18.2c10.6,3.3,23.7,4.9,39.2,4.9
		c35.5,0,60.1-9.2,73.8-27.6L1452.8,951.9z"/>
	<path class="st5" d="M1504.6,979.4V708.5h14l152.3,245.2V708.5h14v270.9h-14l-152.3-245.7v245.7H1504.6z"/>
</g>
<g class="st4">
	<path class="st6" d="M254.6,965.4h184V685.6L333.6,910.8L228.5,685.2v294.3l-14-0.5V652h14l105.1,225.6l105.1-225.1l14-0.5v327.4
		L254.6,979V965.4z"/>
	<path class="st6" d="M701.2,950.9c-16.8,22.1-44.7,33.2-83.6,33.2c-38.9,0-66.8-11-83.6-33.2c-16.8-22.1-25.2-57.8-25.2-107
		c0-49.2,8.4-84.9,25.2-107c16.8-22.1,44.7-33.2,83.6-33.2c38.9,0,66.8,11.1,83.6,33.2c16.8,22.1,25.2,57.8,25.2,107
		C726.4,893.2,718,928.8,701.2,950.9z M656.8,722.8c-10.6-3.3-23.7-4.9-39.2-4.9c-15.6,0-28.7,1.6-39.2,4.9
		c-10.6,3.3-20.3,9.3-29.2,18.2c-8.9,8.9-15.5,21.8-19.9,38.8c-4.4,17-6.5,38.4-6.5,64.2c0,25.9,2.2,47.3,6.5,64.2
		c4.4,17,11,29.9,19.9,38.8c8.9,8.9,18.6,14.9,29.2,18.2c10.6,3.3,23.7,4.9,39.2,4.9c15.6,0,28.6-1.6,39.2-4.9
		c10.6-3.3,20.3-9.3,29.2-18.2s15.5-21.8,19.9-38.8c4.4-17,6.5-38.4,6.5-64.2c0-25.8-2.2-47.3-6.5-64.2c-4.4-17-11-29.9-19.9-38.8
		S667.4,726,656.8,722.8z"/>
	<path class="st6" d="M936.6,965.4v14h-156V708.5h14v256.9H936.6z"/>
	<path class="st6" d="M1011.3,965.4h180.3V728.1l-105.1,105.1L981.4,728.1v251.3l-14-0.5V708.5h14l105.1,105.1l105.1-105.1h14v270.9
		l-194.3-0.5V965.4z"/>
	<path class="st6" d="M1452.8,951.9c-17.1,21.5-45.2,32.2-84.1,32.2c-38.9,0-66.8-11-83.6-33.2c-16.8-22.1-25.2-57.8-25.2-107
		c0-49.2,8.4-84.9,25.2-107c16.8-22.1,44.7-33.2,83.6-33.2c45.1,0,75.8,14.8,92,44.4L1346.3,844h-22l118.2-98.6
		c-13.7-18.4-38.3-27.6-73.8-27.6c-15.6,0-28.7,1.6-39.2,4.9c-10.6,3.3-20.3,9.3-29.2,18.2s-15.5,21.8-19.9,38.8
		c-4.4,17-6.5,38.4-6.5,64.2c0,25.9,2.2,47.3,6.5,64.2c4.4,17,11,29.9,19.9,38.8s18.6,14.9,29.2,18.2c10.6,3.3,23.7,4.9,39.2,4.9
		c35.5,0,60.1-9.2,73.8-27.6L1452.8,951.9z"/>
	<path class="st6" d="M1504.6,979.4V708.5h14l152.3,245.2V708.5h14v270.9h-14l-152.3-245.7v245.7H1504.6z"/>
</g>
<g class="st4">
	<path d="M589.9,1048.5h-12.2l12.5-12.5h-13.9v27.5h-1.2v-28.7h18.1l-12.5,12.5h9.2V1048.5z"/>
	<path d="M598.4,1039.7v11.9c0,4.1,0.6,6.9,1.9,8.6c1.3,1.7,3.1,2.5,5.4,2.5c2.3,0,4.1-0.8,5.4-2.5c1.3-1.7,1.9-4.5,1.9-8.6v-11.9
		h1.2v11.9c0,8.2-2.8,12.3-8.5,12.3c-5.7,0-8.5-4.1-8.5-12.3v-11.9H598.4z"/>
	<path d="M635.3,1062.3v1.2h-13.7v-23.8h1.2v22.5H635.3z"/>
	<path d="M653.7,1062.3v1.2H640v-23.8h1.2v22.5H653.7z"/>
	<path d="M669.8,1041.9c0-2.7,0.7-4.6,2-5.7c1.3-1.2,3.5-1.8,6.5-1.8c2.1,0,3.8,0.5,5.1,1.6c1.3,1.1,2.2,2.8,2.8,5l-3.8,2.9h-2
		l4.4-3.3c-0.6-1.8-1.4-3.1-2.5-3.9c-1.1-0.7-2.4-1.1-4-1.1c-1.1,0-2,0.1-2.8,0.2c-0.8,0.1-1.5,0.4-2.3,0.8c-0.8,0.4-1.3,1-1.7,1.9
		c-0.4,0.9-0.6,2-0.6,3.4c0,1.2,0.6,2.3,1.7,3.2c1.1,0.9,2.5,1.7,4,2.4c1.6,0.7,3.2,1.3,4.8,2c1.6,0.7,3,1.6,4.1,2.6
		c1.1,1.1,1.7,2.3,1.7,3.7c0,2.7-0.7,4.8-2,6.1c-1.4,1.3-3.7,2-6.9,2c-2.7,0-4.8-0.5-6.3-1.6c-1.5-1.1-2.6-2.8-3.2-5l1.1-0.5
		c0.5,2.2,1.5,3.8,2.8,4.6c1.3,0.9,3.2,1.3,5.5,1.3c2.6,0,4.6-0.5,5.8-1.5c1.3-1,1.9-2.8,1.9-5.4c0-1.2-0.6-2.3-1.7-3.2
		c-1.1-0.9-2.5-1.7-4.1-2.4c-1.6-0.7-3.2-1.3-4.8-2c-1.6-0.7-2.9-1.6-4-2.6S669.8,1043.3,669.8,1041.9z"/>
	<path d="M708.9,1039.7v1.2h-8.6v22.5h-1.2V1041h-8.6v-1.2H708.9z"/>
	<path d="M715.8,1062.3h13.4l-8.4-19.8l-8.9,21h-1.3l10.2-24.2l10.2,24.2h-15.2V1062.3z"/>
	<path d="M736.9,1061c-1.5-1.9-2.2-5.1-2.2-9.4s0.7-7.4,2.2-9.4c1.5-1.9,3.9-2.9,7.3-2.9c3.4,0,5.9,0.9,7.4,2.8l-0.9,0.8
		c-1.2-1.6-3.4-2.4-6.5-2.4c-1.4,0-2.5,0.1-3.4,0.4c-0.9,0.3-1.8,0.8-2.6,1.6s-1.4,1.9-1.7,3.4c-0.4,1.5-0.6,3.4-0.6,5.6
		s0.2,4.1,0.6,5.6c0.4,1.5,1,2.6,1.7,3.4s1.6,1.3,2.6,1.6c0.9,0.3,2.1,0.4,3.4,0.4c3.1,0,5.3-0.8,6.5-2.4l0.9,0.8
		c-1.5,1.9-4,2.8-7.4,2.8C740.8,1063.9,738.4,1063,736.9,1061z"/>
	<path d="M757.7,1063.5v-23.8h1.2v23.8H757.7z M772.9,1063.5l-12.6-12.5l11.3-11.2h1.8L762,1051l12.6,12.5H772.9z"/>
	<path d="M795,1063.5h-3.9v-28.7h3.9c3.9,0,7.3,1.4,10,4.3c2.7,2.9,4.1,6.2,4.1,10c0,3.8-1.4,7.1-4.1,10
		C802.3,1062.1,799,1063.5,795,1063.5z M795,1062.3c3.6,0,6.6-1.3,9.1-4s3.8-5.7,3.8-9.2c0-3.5-1.3-6.5-3.8-9.2
		c-2.5-2.6-5.5-4-9.1-4h-2.7v26.2H795z"/>
	<path d="M831.1,1061.1c-1.5,1.9-4,2.8-7.4,2.8c-3.4,0-5.9-1-7.3-2.9c-1.5-1.9-2.2-5.1-2.2-9.4s0.7-7.4,2.2-9.4
		c1.5-1.9,3.9-2.9,7.3-2.9c4,0,6.7,1.3,8.1,3.9l-10,8.4h-1.9l10.4-8.7c-1.2-1.6-3.4-2.4-6.5-2.4c-1.4,0-2.5,0.1-3.4,0.4
		c-0.9,0.3-1.8,0.8-2.6,1.6s-1.4,1.9-1.7,3.4c-0.4,1.5-0.6,3.4-0.6,5.6s0.2,4.1,0.6,5.6c0.4,1.5,1,2.6,1.7,3.4s1.6,1.3,2.6,1.6
		c0.9,0.3,2.1,0.4,3.4,0.4c3.1,0,5.3-0.8,6.5-2.4L831.1,1061.1z"/>
	<path d="M855,1039.7l-10.2,24.2l-10.2-24.2h1.3l8.9,21l8.9-21H855z"/>
	<path d="M875.6,1061.1c-1.5,1.9-4,2.8-7.4,2.8c-3.4,0-5.9-1-7.3-2.9c-1.5-1.9-2.2-5.1-2.2-9.4s0.7-7.4,2.2-9.4
		c1.5-1.9,3.9-2.9,7.3-2.9c4,0,6.7,1.3,8.1,3.9l-10,8.4h-1.9l10.4-8.7c-1.2-1.6-3.4-2.4-6.5-2.4c-1.4,0-2.5,0.1-3.4,0.4
		c-0.9,0.3-1.8,0.8-2.6,1.6s-1.4,1.9-1.7,3.4c-0.4,1.5-0.6,3.4-0.6,5.6s0.2,4.1,0.6,5.6c0.4,1.5,1,2.6,1.7,3.4s1.6,1.3,2.6,1.6
		c0.9,0.3,2.1,0.4,3.4,0.4c3.1,0,5.3-0.8,6.5-2.4L875.6,1061.1z"/>
	<path d="M895.8,1062.3v1.2h-13.7v-23.8h1.2v22.5H895.8z"/>
	<path d="M916.4,1061c-1.5,1.9-3.9,2.9-7.3,2.9c-3.4,0-5.9-1-7.3-2.9c-1.5-1.9-2.2-5.1-2.2-9.4s0.7-7.4,2.2-9.4
		c1.5-1.9,3.9-2.9,7.3-2.9c3.4,0,5.9,1,7.3,2.9c1.5,1.9,2.2,5.1,2.2,9.4S917.9,1059.1,916.4,1061z M912.5,1041
		c-0.9-0.3-2.1-0.4-3.4-0.4c-1.4,0-2.5,0.1-3.4,0.4c-0.9,0.3-1.8,0.8-2.6,1.6s-1.4,1.9-1.7,3.4c-0.4,1.5-0.6,3.4-0.6,5.6
		s0.2,4.1,0.6,5.6c0.4,1.5,1,2.6,1.7,3.4s1.6,1.3,2.6,1.6c0.9,0.3,2.1,0.4,3.4,0.4c1.4,0,2.5-0.1,3.4-0.4c0.9-0.3,1.8-0.8,2.6-1.6
		c0.8-0.8,1.4-1.9,1.7-3.4c0.4-1.5,0.6-3.4,0.6-5.6s-0.2-4.1-0.6-5.6c-0.4-1.5-1-2.6-1.7-3.4C914.3,1041.8,913.4,1041.3,912.5,1041z
		"/>
	<path d="M935.6,1054.7l-0.6-1.1l2.3-1.3c1.9-1,2.8-2.7,2.8-5c0-4.2-3.2-6.4-9.7-6.4h-3.8v30.8h-1.2v-32h5c3.6,0,6.3,0.7,8.2,2
		c1.8,1.3,2.7,3.2,2.7,5.6c0,2.7-1.1,4.7-3.4,6L935.6,1054.7z"/>
	<path d="M963,1061.1c-1.5,1.9-4,2.8-7.4,2.8c-3.4,0-5.9-1-7.3-2.9c-1.5-1.9-2.2-5.1-2.2-9.4s0.7-7.4,2.2-9.4
		c1.5-1.9,3.9-2.9,7.3-2.9c4,0,6.7,1.3,8.1,3.9l-10,8.4h-1.9l10.4-8.7c-1.2-1.6-3.4-2.4-6.5-2.4c-1.4,0-2.5,0.1-3.4,0.4
		c-0.9,0.3-1.8,0.8-2.6,1.6s-1.4,1.9-1.7,3.4c-0.4,1.5-0.6,3.4-0.6,5.6s0.2,4.1,0.6,5.6c0.4,1.5,1,2.6,1.7,3.4s1.6,1.3,2.6,1.6
		c0.9,0.3,2.1,0.4,3.4,0.4c3.1,0,5.3-0.8,6.5-2.4L963,1061.1z"/>
	<path d="M979.6,1051.6l5.6,11.9h-1.4l-5.7-12.3c0.1,0,0.3-0.1,0.7-0.3c0.4-0.2,0.7-0.4,0.9-0.5c0.2-0.1,0.4-0.3,0.8-0.5
		s0.7-0.5,0.9-0.7c0.2-0.2,0.4-0.5,0.6-0.8s0.4-0.7,0.5-1.1c0.1-0.4,0.2-0.8,0.2-1.3c0-1.7-0.8-3-2.5-3.8c-1.6-0.8-3.7-1.2-6.1-1.2
		h-3.3v22.5h-1.2v-23.8h4.5c3.2,0,5.7,0.6,7.3,1.7s2.5,2.7,2.5,4.6c0,1.3-0.4,2.4-1.3,3.3C981.7,1050.3,980.7,1051.1,979.6,1051.6z"
		/>
	<path d="M1004.2,1066h-1.2v-33.6h1.2V1066z"/>
	<path d="M1028.3,1063.5h-3.9v-28.7h3.9c3.9,0,7.3,1.4,10,4.3c2.7,2.9,4.1,6.2,4.1,10c0,3.8-1.4,7.1-4.1,10
		C1035.5,1062.1,1032.2,1063.5,1028.3,1063.5z M1028.3,1062.3c3.6,0,6.6-1.3,9.1-4s3.8-5.7,3.8-9.2c0-3.5-1.3-6.5-3.8-9.2
		c-2.5-2.6-5.5-4-9.1-4h-2.7v26.2H1028.3z"/>
	<path d="M1064.4,1061.1c-1.5,1.9-4,2.8-7.4,2.8c-3.4,0-5.9-1-7.3-2.9c-1.5-1.9-2.2-5.1-2.2-9.4s0.7-7.4,2.2-9.4
		c1.5-1.9,3.9-2.9,7.3-2.9c4,0,6.7,1.3,8.1,3.9l-10,8.4h-1.9l10.4-8.7c-1.2-1.6-3.4-2.4-6.5-2.4c-1.4,0-2.5,0.1-3.4,0.4
		c-0.9,0.3-1.8,0.8-2.6,1.6s-1.4,1.9-1.7,3.4c-0.4,1.5-0.6,3.4-0.6,5.6s0.2,4.1,0.6,5.6c0.4,1.5,1,2.6,1.7,3.4s1.6,1.3,2.6,1.6
		c0.9,0.3,2.1,0.4,3.4,0.4c3.1,0,5.3-0.8,6.5-2.4L1064.4,1061.1z"/>
	<path d="M1077.2,1039.2c3.4,0,5.8,0.8,7.2,2.3l-0.8,0.9c-1.3-1.3-3.4-1.9-6.2-1.9c-4.3,0-6.4,1.7-6.4,5.1c0,1.3,0.5,2.4,1.6,3.1
		c1,0.8,2.3,1.4,3.8,1.8s3,0.8,4.5,1.3c1.5,0.5,2.7,1.2,3.8,2.2c1,1,1.6,2.3,1.6,3.9c0,1.9-0.8,3.4-2.3,4.5
		c-1.6,1.1-3.8,1.7-6.8,1.7c-1.4,0-2.9-0.2-4.3-0.6c-1.4-0.4-2.5-0.9-3.1-1.7l0.8-0.9c1.4,1.3,3.5,1.9,6.4,1.9c2.7,0,4.7-0.5,6-1.5
		c1.4-1,2-2.1,2-3.4c0-1.4-0.5-2.5-1.6-3.3c-1-0.8-2.3-1.5-3.8-1.9s-3-0.9-4.5-1.3c-1.5-0.4-2.7-1.1-3.8-2.1s-1.6-2.2-1.6-3.8
		c0-2.1,0.7-3.7,2.1-4.7C1073.3,1039.8,1075.1,1039.2,1077.2,1039.2z"/>
	<path d="M1092.1,1039.7h1.2v23.8h-1.2V1039.7z"/>
	<path d="M1110.7,1047.5l5.5-4.6c-1.2-1.6-3.4-2.4-6.5-2.4c-1.4,0-2.5,0.1-3.4,0.4s-1.8,0.8-2.6,1.6c-0.8,0.8-1.4,1.9-1.7,3.4
		c-0.4,1.5-0.6,3.4-0.6,5.6s0.2,4.1,0.6,5.6c0.4,1.5,1,2.6,1.7,3.4c0.8,0.8,1.6,1.3,2.6,1.6c0.9,0.3,2.1,0.4,3.4,0.4
		c3.1,0,5.2-0.8,6.4-2.4v-7.3h1.2v10.8c0,5.2-2.4,7.8-7.2,7.8h-4.8v-1.2h4.8c2,0,3.6-0.5,4.5-1.6c1-1.1,1.4-3.1,1.4-6.2v-0.6
		c-1.5,1.2-3.6,1.8-6.4,1.8c-3.4,0-5.9-1-7.3-2.9c-1.5-1.9-2.2-5.1-2.2-9.4s0.7-7.4,2.2-9.4c1.5-1.9,3.9-2.9,7.3-2.9
		c4,0,6.7,1.3,8.1,3.9l-5.1,4.3H1110.7z"/>
	<path d="M1124.5,1063.5v-23.8h1.2l13.4,21.5v-21.5h1.2v23.8h-1.2l-13.4-21.6v21.6H1124.5z"/>
	<path d="M1161.6,1066h-1.2v-33.6h1.2V1066z"/>
	<path d="M1199.6,1058.3c-0.7,1.8-1.8,3.2-3.1,4.2c-1.3,1-3.3,1.5-6,1.5c-3.4,0-5.8-1-7.3-3.1c-1.5-2.1-2.3-5.3-2.3-9.7v-4
		c0-4.4,0.8-7.6,2.3-9.7c1.5-2.1,3.9-3.1,7.3-3.1c2.7,0,4.7,0.5,6,1.5c1.3,1,2.4,2.4,3.1,4.2l-1.1,0.5c-0.6-1.6-1.5-2.8-2.7-3.7
		c-1.1-0.9-2.9-1.3-5.4-1.3c-1.3,0-2.5,0.2-3.4,0.5s-1.8,0.9-2.6,1.7c-0.8,0.8-1.3,2-1.7,3.5c-0.4,1.5-0.6,3.5-0.6,5.7v4
		c0,2.3,0.2,4.2,0.6,5.7c0.4,1.5,1,2.7,1.7,3.5c0.8,0.8,1.6,1.4,2.6,1.7s2.1,0.5,3.4,0.5c2.4,0,4.2-0.4,5.4-1.3
		c1.1-0.9,2-2.1,2.7-3.7L1199.6,1058.3z"/>
	<path d="M1221.5,1061c-1.5,1.9-3.9,2.9-7.3,2.9c-3.4,0-5.9-1-7.3-2.9c-1.5-1.9-2.2-5.1-2.2-9.4s0.7-7.4,2.2-9.4
		c1.5-1.9,3.9-2.9,7.3-2.9c3.4,0,5.9,1,7.3,2.9c1.5,1.9,2.2,5.1,2.2,9.4S1223,1059.1,1221.5,1061z M1217.6,1041
		c-0.9-0.3-2.1-0.4-3.4-0.4s-2.5,0.1-3.4,0.4c-0.9,0.3-1.8,0.8-2.6,1.6s-1.4,1.9-1.7,3.4c-0.4,1.5-0.6,3.4-0.6,5.6s0.2,4.1,0.6,5.6
		c0.4,1.5,1,2.6,1.7,3.4s1.6,1.3,2.6,1.6c0.9,0.3,2.1,0.4,3.4,0.4s2.5-0.1,3.4-0.4c0.9-0.3,1.8-0.8,2.6-1.6c0.8-0.8,1.4-1.9,1.7-3.4
		c0.4-1.5,0.6-3.4,0.6-5.6s-0.2-4.1-0.6-5.6c-0.4-1.5-1-2.6-1.7-3.4C1219.4,1041.8,1218.6,1041.3,1217.6,1041z"/>
	<path d="M1246.4,1061c-1.5,1.9-3.9,2.9-7.3,2.9c-3.4,0-5.9-1-7.3-2.9c-1.5-1.9-2.2-5.1-2.2-9.4s0.7-7.4,2.2-9.4
		c1.5-1.9,3.9-2.9,7.3-2.9c3.4,0,5.9,1,7.3,2.9c1.5,1.9,2.2,5.1,2.2,9.4S1247.9,1059.1,1246.4,1061z M1242.5,1041
		c-0.9-0.3-2.1-0.4-3.4-0.4s-2.5,0.1-3.4,0.4c-0.9,0.3-1.8,0.8-2.6,1.6c-0.8,0.8-1.4,1.9-1.7,3.4c-0.4,1.5-0.6,3.4-0.6,5.6
		s0.2,4.1,0.6,5.6c0.4,1.5,1,2.6,1.7,3.4c0.8,0.8,1.6,1.3,2.6,1.6c0.9,0.3,2.1,0.4,3.4,0.4s2.5-0.1,3.4-0.4c0.9-0.3,1.8-0.8,2.6-1.6
		c0.8-0.8,1.4-1.9,1.7-3.4c0.4-1.5,0.6-3.4,0.6-5.6s-0.2-4.1-0.6-5.6c-0.4-1.5-1-2.6-1.7-3.4
		C1244.3,1041.8,1243.4,1041.3,1242.5,1041z"/>
	<path d="M1269,1062.3v1.2h-13.7v-23.8h1.2v22.5H1269z"/>
	<path d="M1302.7,1040.6c-0.6-1.6-1.5-2.8-2.7-3.7c-1.1-0.9-2.9-1.3-5.4-1.3c-1.3,0-2.5,0.2-3.4,0.5c-1,0.3-1.8,0.9-2.6,1.7
		c-0.8,0.8-1.3,2-1.7,3.5s-0.6,3.5-0.6,5.7v4c0,2.3,0.2,4.2,0.6,5.7s1,2.7,1.7,3.5c0.8,0.8,1.6,1.4,2.6,1.7c1,0.3,2.1,0.5,3.4,0.5
		c2.5,0,4.4-0.5,5.9-1.6c1.4-1.1,2.2-2.2,2.2-3.4v-6.9h-5v-1.2h6.5v7.7c0,1.8-0.8,3.4-2.5,4.7c-1.7,1.3-4,1.9-7,1.9
		c-3.4,0-5.8-1-7.3-3.1c-1.5-2.1-2.3-5.3-2.3-9.7v-4c0-4.4,0.8-7.6,2.3-9.7c1.5-2.1,3.9-3.1,7.3-3.1c2.7,0,4.7,0.5,6.1,1.5
		s2.4,2.4,3.1,4.2L1302.7,1040.6z"/>
	<path d="M1311.9,1039.7v11.9c0,4.1,0.6,6.9,1.9,8.6c1.3,1.7,3.1,2.5,5.4,2.5c2.3,0,4.1-0.8,5.3-2.5c1.3-1.7,1.9-4.5,1.9-8.6v-11.9
		h1.2v11.9c0,8.2-2.8,12.3-8.5,12.3c-5.7,0-8.5-4.1-8.5-12.3v-11.9H1311.9z"/>
	<path d="M1336.5,1039.7h15.9l-9.6,22.8v9.2h-1.2v-9.2l-9.6-22.8h1.3l8.9,21l8.4-19.8h-14V1039.7z"/>
</g>
</svg>
